<svg width="24" height="24" viewBox="0 0 24 24" fill="none" xmlns="http://www.w3.org/2000/svg">
<rect x="24" width="24" height="24" rx="12" transform="rotate(90 24 0)" fill="#42A162"/>
<path fill-rule="evenodd" clip-rule="evenodd" d="M7.54912 6.03088C8.57108 6.0684 9.69927 6.36343 10.4804 7.03167C11.6563 8.03754 12.0043 9.13071 11.8929 10.0938C11.8104 10.8072 11.4799 11.4098 11.1253 11.8121C11.4494 12.4415 11.6813 13.1651 11.8467 13.8885C12.0375 13.5148 12.2871 13.1572 12.6134 12.8397C12.2624 11.7356 12.2972 10.7825 12.7414 10.0217C13.2241 9.195 14.1163 8.72368 15.1574 8.49715C16.2664 8.25583 17.3697 8.52735 18.1705 8.86289C18.5752 9.03243 18.9197 9.22531 19.1698 9.39629C19.2936 9.48086 19.404 9.56678 19.4896 9.64847C19.5314 9.68838 19.5784 9.73783 19.6188 9.79444L19.619 9.79472C19.6435 9.82903 19.7353 9.95742 19.7353 10.1375V10.2516L19.6858 10.3544C19.4166 10.9134 18.8947 11.7482 18.2443 12.54C17.5996 13.3251 16.7864 14.1201 15.9222 14.5414C15.1222 14.9314 14.3919 14.7663 13.8434 14.4205C13.5526 14.2372 13.3084 14.0021 13.1159 13.767C12.6688 14.3017 12.4381 14.9753 12.3251 15.6668C12.2576 16.0799 12.2345 16.4788 12.229 16.8398C12.2476 17.2655 12.2482 17.6309 12.2386 17.9012C12.2289 18.1738 12.0026 18.3883 11.73 18.3834C11.4574 18.3786 11.2389 18.1562 11.2389 17.8835C11.2389 17.8015 11.2368 17.7021 11.2343 17.5882C11.23 17.3847 11.2247 17.135 11.2287 16.8564C11.2056 16.3491 11.155 15.7477 11.0611 15.1216C10.926 14.2203 10.7059 13.3032 10.3697 12.5485C10.166 12.719 9.92932 12.8876 9.67123 13.0268C9.15269 13.3064 8.45942 13.5115 7.7658 13.2363L7.74843 13.2294L7.73163 13.2212C6.54329 12.6436 5.80605 11.4537 5.35894 10.2993C4.90719 9.13286 4.71504 7.90991 4.67544 7.12796L4.66273 6.87681L4.85677 6.71686C5.48129 6.20205 6.54295 5.99395 7.54912 6.03088ZM10.5576 10.9099C10.1336 10.3374 9.61399 9.81463 8.98012 9.39204C8.75035 9.23887 8.43992 9.30096 8.28674 9.53072C8.13357 9.76048 8.19565 10.0709 8.42542 10.2241C9.00558 10.6109 9.47989 11.105 9.8655 11.6605C9.68216 11.8301 9.44984 12.0101 9.19663 12.1466C8.80405 12.3583 8.44614 12.4229 8.15078 12.313C7.30757 11.8946 6.70022 10.9935 6.29145 9.9381C5.9352 9.0183 5.75663 8.04907 5.69404 7.35603C6.09191 7.14212 6.75133 7.00227 7.51243 7.03021C8.40568 7.063 9.28226 7.32267 9.83037 7.79156C10.7844 8.60765 10.9682 9.38497 10.8995 9.97896C10.8576 10.3416 10.7186 10.6624 10.5576 10.9099ZM13.8163 13.0396C13.9593 13.2323 14.1519 13.4329 14.3767 13.5746C14.694 13.7746 15.0555 13.8514 15.484 13.6425C16.1556 13.3151 16.8589 12.6513 17.4716 11.9054C17.9594 11.3114 18.3628 10.6986 18.6217 10.233C18.6164 10.2293 18.611 10.2256 18.6055 10.2218C18.4142 10.0911 18.1297 9.93001 17.7841 9.78521C17.0844 9.49206 16.2019 9.29328 15.37 9.47428C14.4702 9.67007 13.8902 10.0374 13.605 10.5259C13.3995 10.8778 13.3074 11.3614 13.4336 12.0217C13.8933 11.6198 14.4463 11.2864 15.1066 11.0679C15.3688 10.9811 15.6516 11.1233 15.7384 11.3855C15.8251 11.6477 15.6829 11.9305 15.4208 12.0173C14.76 12.2359 14.2343 12.5979 13.8163 13.0396Z" fill="white" stroke="white" stroke-width="0.1"/>
</svg>
