<svg width="14" height="12" viewBox="0 0 14 12" fill="none" xmlns="http://www.w3.org/2000/svg">
<path fill-rule="evenodd" clip-rule="evenodd" d="M6.99991 4.42749C6.11324 4.42749 5.39258 5.14882 5.39258 6.03549C5.39258 6.92149 6.11324 7.64216 6.99991 7.64216C7.88658 7.64216 8.60791 6.92149 8.60791 6.03549C8.60791 5.14882 7.88658 4.42749 6.99991 4.42749ZM6.99991 8.64216C5.56191 8.64216 4.39258 7.47282 4.39258 6.03549C4.39258 4.59749 5.56191 3.42749 6.99991 3.42749C8.43791 3.42749 9.60791 4.59749 9.60791 6.03549C9.60791 7.47282 8.43791 8.64216 6.99991 8.64216Z" fill="#576674"/>
<mask id="mask0_12339_5189" style="mask-type:luminance" maskUnits="userSpaceOnUse" x="0" y="0" width="14" height="12">
<path fill-rule="evenodd" clip-rule="evenodd" d="M0.333496 0.666748H13.6667V11.4034H0.333496V0.666748Z" fill="white" stroke="white" stroke-width="0.2"/>
</mask>
<g mask="url(#mask0_12339_5189)">
<path fill-rule="evenodd" clip-rule="evenodd" d="M1.38 6.035C2.62 8.77434 4.70866 10.403 7 10.4037C9.29133 10.403 11.38 8.77434 12.62 6.035C11.38 3.29634 9.29133 1.66767 7 1.667C4.70933 1.66767 2.62 3.29634 1.38 6.035ZM7.00133 11.4037H6.99866H6.998C4.24066 11.4017 1.76466 9.469 0.373996 6.23234C0.319996 6.10634 0.319996 5.96367 0.373996 5.83767C1.76466 2.60167 4.24133 0.669004 6.998 0.667004C6.99933 0.666337 6.99933 0.666337 7 0.667004C7.00133 0.666337 7.00133 0.666337 7.002 0.667004C9.75933 0.669004 12.2353 2.60167 13.626 5.83767C13.6807 5.96367 13.6807 6.10634 13.626 6.23234C12.236 9.469 9.75933 11.4017 7.002 11.4037H7.00133Z" fill="#576674"/>
<path d="M7 10.4037L6.99997 10.5037H7.00003L7 10.4037ZM12.62 6.035L12.7111 6.07624L12.7298 6.035L12.7111 5.99376L12.62 6.035ZM7 1.667L7.00003 1.567H6.99997L7 1.667ZM1.38 6.035L1.2889 5.99376L1.27023 6.035L1.2889 6.07624L1.38 6.035ZM6.998 11.4037L6.99792 11.5037H6.998V11.4037ZM0.373996 6.23234L0.282082 6.27173L0.282118 6.27181L0.373996 6.23234ZM0.373996 5.83767L0.282121 5.79819L0.282082 5.79828L0.373996 5.83767ZM6.998 0.667004L6.99807 0.767004L7.02164 0.766987L7.04272 0.756447L6.998 0.667004ZM7 0.667004L6.92929 0.737715L6.98025 0.78868L7.04472 0.756447L7 0.667004ZM7.002 0.667004L6.93129 0.737715L6.96055 0.766974L7.00192 0.767004L7.002 0.667004ZM13.626 5.83767L13.5341 5.87715L13.5343 5.87747L13.626 5.83767ZM13.626 6.23234L13.5343 6.19254L13.5341 6.19288L13.626 6.23234ZM7.002 11.4037V11.5037H7.00207L7.002 11.4037ZM1.2889 6.07624C2.53893 8.83774 4.65636 10.503 6.99997 10.5037L7.00003 10.3037C4.76097 10.303 2.70106 8.71093 1.4711 5.99377L1.2889 6.07624ZM7.00003 10.5037C9.34363 10.503 11.4611 8.83774 12.7111 6.07624L12.5289 5.99377C11.2989 8.71093 9.23903 10.303 6.99997 10.3037L7.00003 10.5037ZM12.7111 5.99376C11.4611 3.23292 9.34363 1.56769 7.00003 1.567L6.99997 1.767C9.23903 1.76766 11.2989 3.35975 12.5289 6.07625L12.7111 5.99376ZM6.99997 1.567C4.65704 1.56769 2.53894 3.23292 1.2889 5.99376L1.47109 6.07625C2.70105 3.35976 4.76162 1.76766 7.00003 1.767L6.99997 1.567ZM7.00133 11.3037H6.99866V11.5037H7.00133V11.3037ZM6.99866 11.3037H6.998V11.5037H6.99866V11.3037ZM6.99807 11.3037C4.29266 11.3017 1.84611 9.40526 0.465874 6.19286L0.282118 6.27181C1.68321 9.53275 4.18867 11.5016 6.99792 11.5037L6.99807 11.3037ZM0.465911 6.19295C0.422691 6.0921 0.422691 5.97791 0.465911 5.87706L0.282082 5.79828C0.217301 5.94943 0.217301 6.12057 0.282082 6.27173L0.465911 6.19295ZM0.465871 5.87715C1.84611 2.66543 4.29331 0.768966 6.99807 0.767004L6.99792 0.567004C4.18934 0.569042 1.68322 2.53791 0.282121 5.79819L0.465871 5.87715ZM7.04272 0.756447C7.0443 0.755656 7.04111 0.757309 7.03758 0.758794C7.03504 0.759864 7.01991 0.766504 6.99925 0.766504C6.97276 0.766504 6.95271 0.756184 6.94078 0.747506C6.93306 0.741897 6.92689 0.735316 6.92929 0.737715L7.07071 0.596293C7.0707 0.596283 7.07062 0.596206 7.07054 0.596122C7.07045 0.596032 7.0703 0.595885 7.07012 0.595706C7.06978 0.595375 7.06913 0.594739 7.06831 0.593963C7.0669 0.592639 7.06336 0.589356 7.0584 0.585751C7.04624 0.576907 7.02598 0.566504 6.99925 0.566504C6.97833 0.566504 6.96291 0.573227 6.95997 0.574464C6.9575 0.575507 6.95557 0.576436 6.95481 0.576803C6.95402 0.577187 6.95328 0.577558 6.95327 0.577561L7.04272 0.756447ZM7.04472 0.756447C7.0463 0.755656 7.04311 0.757309 7.03958 0.758794C7.03704 0.759864 7.02191 0.766504 7.00125 0.766504C6.97476 0.766504 6.95471 0.756184 6.94278 0.747506C6.93506 0.741897 6.92889 0.735316 6.93129 0.737715L7.07271 0.596293C7.0727 0.596283 7.07262 0.596206 7.07254 0.596122C7.07245 0.596032 7.0723 0.595885 7.07212 0.595706C7.07178 0.595375 7.07113 0.594739 7.07031 0.593963C7.0689 0.592639 7.06536 0.589356 7.0604 0.585751C7.04824 0.576907 7.02799 0.566504 7.00125 0.566504C6.98033 0.566504 6.96491 0.573227 6.96197 0.574464C6.9595 0.575507 6.95757 0.576436 6.95681 0.576803C6.95602 0.577187 6.95528 0.577558 6.95528 0.577561L7.04472 0.756447ZM7.00192 0.767004C9.70734 0.768966 12.1539 2.66542 13.5341 5.87715L13.7179 5.79819C12.3168 2.53792 9.81132 0.569042 7.00207 0.567004L7.00192 0.767004ZM13.5343 5.87747C13.5779 5.97808 13.5779 6.09193 13.5343 6.19254L13.7177 6.27214C13.7834 6.12075 13.7834 5.94926 13.7177 5.79787L13.5343 5.87747ZM13.5341 6.19288C12.1545 9.40525 9.70735 11.3017 7.00192 11.3037L7.00207 11.5037C9.81131 11.5016 12.3174 9.53276 13.7179 6.2718L13.5341 6.19288ZM7.002 11.3037H7.00133V11.5037H7.002V11.3037Z" fill="#576674"/>
</g>
</svg>
