<svg width="13" height="13" viewBox="0 0 13 13" fill="none" xmlns="http://www.w3.org/2000/svg">
<path fill-rule="evenodd" clip-rule="evenodd" d="M8.60685 2.54917C8.64039 2.3448 8.83325 2.20631 9.03763 2.23985C9.89829 2.38109 10.5549 3.12713 10.5549 4.0279L10.5549 4.02868C10.553 4.94254 9.87572 5.69616 8.99607 5.81975C8.79098 5.84857 8.60136 5.70567 8.57255 5.50058C8.54373 5.29548 8.68663 5.10586 8.89172 5.07705C9.40696 5.00466 9.80361 4.56247 9.8049 4.0275C9.80471 3.50045 9.42038 3.06269 8.91617 2.97995C8.7118 2.94641 8.57331 2.75355 8.60685 2.54917Z" fill="#86919D"/>
<path fill-rule="evenodd" clip-rule="evenodd" d="M9.49342 7.06975C9.52405 6.86492 9.71492 6.7237 9.91975 6.75432C10.2777 6.80784 10.6275 6.90257 10.8968 7.07919C11.1849 7.26817 11.3863 7.55804 11.3863 7.9502C11.3863 8.20951 11.2973 8.43619 11.1364 8.61824C10.9824 8.79243 10.7775 8.9096 10.564 8.99106C10.3705 9.0649 10.1538 8.9679 10.0799 8.7744C10.0061 8.5809 10.1031 8.36419 10.2966 8.29034C10.4421 8.2348 10.5277 8.17447 10.5744 8.12154C10.6143 8.07646 10.6363 8.02639 10.6363 7.9502C10.6363 7.85486 10.6019 7.78273 10.4855 7.70634C10.3501 7.61758 10.1264 7.54356 9.80885 7.49608C9.60402 7.46545 9.4628 7.27458 9.49342 7.06975Z" fill="#86919D"/>
<path fill-rule="evenodd" clip-rule="evenodd" d="M3.73179 7.21972C4.33617 7.01704 5.1319 6.95695 5.9434 6.95695C6.75969 6.95695 7.55572 7.01909 8.15939 7.22427C8.4632 7.32754 8.74565 7.47594 8.95541 7.69575C9.17381 7.92462 9.2974 8.21501 9.2974 8.55645C9.2974 8.89869 9.17266 9.18899 8.95285 9.41693C8.74198 9.6356 8.45847 9.7823 8.15445 9.88397C7.55024 10.086 6.75466 10.1455 5.9434 10.1455C5.12718 10.1455 4.33111 10.0836 3.7274 9.87883C3.4236 9.7758 3.14106 9.62769 2.9312 9.40816C2.71265 9.17953 2.5889 8.88931 2.5889 8.54795C2.5889 8.20576 2.71372 7.91547 2.93343 7.68747C3.14424 7.4687 3.42771 7.3217 3.73179 7.21972ZM3.47349 8.20789C3.38564 8.29905 3.3389 8.40389 3.3389 8.54795C3.3389 8.69259 3.38565 8.79818 3.47333 8.8899C3.56971 8.99071 3.72914 9.08747 3.96827 9.16857C4.45044 9.33208 5.14412 9.39545 5.9434 9.39545C6.73914 9.39545 7.43306 9.33438 7.9166 9.17268C8.15646 9.09247 8.31638 8.99649 8.41298 8.89632C8.50064 8.80541 8.5474 8.70071 8.5474 8.55645C8.5474 8.41139 8.50055 8.30547 8.41281 8.21353C8.31643 8.11252 8.15704 8.01561 7.91803 7.93438C7.43608 7.77056 6.74261 7.70695 5.9434 7.70695C5.1479 7.70695 4.45388 7.76861 3.97026 7.9308C3.73034 8.01126 3.57024 8.10748 3.47349 8.20789Z" fill="#86919D"/>
<path fill-rule="evenodd" clip-rule="evenodd" d="M3.6589 4.03379C3.65929 2.77251 4.68203 1.75 5.9434 1.75C7.20501 1.75 8.2279 2.77289 8.2279 4.0345C8.2279 5.29667 7.20494 6.319 5.9434 6.319H5.9294L5.92815 6.319C4.6701 6.31481 3.6545 5.29153 3.6589 4.03379ZM3.6589 4.03379C3.6589 4.03355 3.6589 4.03331 3.6589 4.03307L4.0339 4.0345H3.6589C3.6589 4.03426 3.6589 4.03402 3.6589 4.03379ZM5.9434 2.5C5.09601 2.5 4.4089 3.18711 4.4089 4.0345V4.03593C4.40569 4.87966 5.08661 5.56586 5.93004 5.569H5.9434C6.79086 5.569 7.4779 4.88233 7.4779 4.0345C7.4779 3.18711 6.79079 2.5 5.9434 2.5Z" fill="#86919D"/>
<path fill-rule="evenodd" clip-rule="evenodd" d="M3.2795 2.54917C3.31304 2.75355 3.17455 2.94641 2.97018 2.97995C2.46597 3.06269 2.08164 3.50045 2.08145 4.02751C2.08275 4.56259 2.479 5.00465 2.99459 5.07704C3.19968 5.10584 3.3426 5.29544 3.31381 5.50054C3.28501 5.70563 3.09541 5.84855 2.89031 5.81976C2.01003 5.69616 1.33334 4.94242 1.33145 4.02868L1.33145 4.0279C1.33145 3.12713 1.98806 2.38109 2.84872 2.23985C3.0531 2.20631 3.24596 2.3448 3.2795 2.54917Z" fill="#86919D"/>
<path fill-rule="evenodd" clip-rule="evenodd" d="M2.39288 7.06975C2.4235 7.27458 2.28228 7.46545 2.07745 7.49608C1.75988 7.54356 1.53618 7.61758 1.40085 7.70634C1.28437 7.78273 1.25 7.85486 1.25 7.9502C1.25 8.02639 1.27201 8.07646 1.31185 8.12154C1.35864 8.17447 1.44416 8.2348 1.5897 8.29034C1.7832 8.36419 1.8802 8.5809 1.80636 8.7744C1.73251 8.9679 1.51579 9.0649 1.3223 8.99106C1.10884 8.9096 0.903861 8.79243 0.749898 8.61824C0.588993 8.43619 0.5 8.20951 0.5 7.9502C0.5 7.55804 0.701377 7.26817 0.989528 7.07919C1.25882 6.90257 1.60862 6.80784 1.96655 6.75432C2.17138 6.7237 2.36225 6.86492 2.39288 7.06975Z" fill="#86919D"/>
<path d="M3.6589 4.03379C3.65929 2.77251 4.68203 1.75 5.9434 1.75C7.20501 1.75 8.2279 2.77289 8.2279 4.0345C8.2279 5.29667 7.20494 6.319 5.9434 6.319H5.9294L5.92815 6.319C4.67011 6.31481 3.6545 5.29153 3.6589 4.03379ZM3.6589 4.03379C3.6589 4.03355 3.6589 4.03331 3.6589 4.03307L4.0339 4.0345H3.6589C3.6589 4.03426 3.6589 4.03402 3.6589 4.03379ZM9.03763 2.23985C8.83325 2.20631 8.64039 2.3448 8.60685 2.54917C8.57331 2.75355 8.7118 2.94641 8.91617 2.97995C9.42038 3.06269 9.80471 3.50045 9.8049 4.0275C9.80361 4.56247 9.40696 5.00466 8.89172 5.07705C8.68663 5.10586 8.54373 5.29548 8.57255 5.50058C8.60136 5.70567 8.79098 5.84857 8.99607 5.81975C9.87572 5.69616 10.553 4.94254 10.5549 4.02868L10.5549 4.0279C10.5549 3.12713 9.89829 2.38109 9.03763 2.23985ZM9.91975 6.75432C9.71492 6.7237 9.52405 6.86492 9.49342 7.06975C9.4628 7.27458 9.60402 7.46545 9.80885 7.49608C10.1264 7.54356 10.3501 7.61758 10.4855 7.70634C10.6019 7.78273 10.6363 7.85486 10.6363 7.9502C10.6363 8.02639 10.6143 8.07646 10.5744 8.12154C10.5277 8.17447 10.4421 8.2348 10.2966 8.29034C10.1031 8.36419 10.0061 8.58091 10.0799 8.7744C10.1538 8.9679 10.3705 9.0649 10.564 8.99106C10.7775 8.9096 10.9824 8.79243 11.1364 8.61824C11.2973 8.43619 11.3863 8.20951 11.3863 7.9502C11.3863 7.55804 11.1849 7.26817 10.8968 7.07919C10.6275 6.90257 10.2777 6.80784 9.91975 6.75432ZM5.9434 6.95695C5.1319 6.95695 4.33617 7.01704 3.73179 7.21972C3.42771 7.3217 3.14425 7.4687 2.93343 7.68747C2.71372 7.91547 2.5889 8.20576 2.5889 8.54795C2.5889 8.88931 2.71265 9.17953 2.9312 9.40816C3.14106 9.62769 3.4236 9.7758 3.7274 9.87883C4.33111 10.0836 5.12718 10.1455 5.9434 10.1455C6.75466 10.1455 7.55024 10.086 8.15445 9.88397C8.45847 9.7823 8.74198 9.6356 8.95285 9.41693C9.17266 9.18899 9.2974 8.89869 9.2974 8.55645C9.2974 8.21501 9.17381 7.92462 8.95541 7.69575C8.74565 7.47594 8.4632 7.32754 8.15939 7.22427C7.55572 7.01909 6.75969 6.95695 5.9434 6.95695ZM3.3389 8.54795C3.3389 8.40389 3.38564 8.29905 3.47349 8.20789C3.57024 8.10748 3.73034 8.01126 3.97026 7.9308C4.45388 7.76861 5.1479 7.70695 5.9434 7.70695C6.74261 7.70695 7.43608 7.77056 7.91803 7.93438C8.15704 8.01561 8.31643 8.11252 8.41281 8.21353C8.50055 8.30547 8.5474 8.41139 8.5474 8.55645C8.5474 8.7007 8.50064 8.80541 8.41298 8.89632C8.31638 8.99649 8.15646 9.09247 7.9166 9.17268C7.43306 9.33438 6.73914 9.39545 5.9434 9.39545C5.14412 9.39545 4.45044 9.33208 3.96827 9.16857C3.72914 9.08747 3.56971 8.99071 3.47333 8.8899C3.38565 8.79818 3.3389 8.69259 3.3389 8.54795ZM4.4089 4.0345C4.4089 3.18711 5.09601 2.5 5.9434 2.5C6.79079 2.5 7.4779 3.18711 7.4779 4.0345C7.4779 4.88233 6.79086 5.569 5.9434 5.569H5.93004C5.08661 5.56586 4.40569 4.87966 4.4089 4.03593V4.0345ZM2.97018 2.97995C3.17455 2.94641 3.31304 2.75355 3.2795 2.54917C3.24596 2.3448 3.0531 2.20631 2.84872 2.23985C1.98806 2.38109 1.33145 3.12713 1.33145 4.0279L1.33145 4.02868C1.33334 4.94242 2.01003 5.69616 2.89031 5.81976C3.09541 5.84855 3.28501 5.70563 3.31381 5.50054C3.3426 5.29544 3.19968 5.10584 2.99459 5.07704C2.479 5.00465 2.08275 4.56259 2.08145 4.02751C2.08164 3.50045 2.46597 3.06269 2.97018 2.97995ZM2.07745 7.49608C2.28228 7.46545 2.4235 7.27458 2.39288 7.06975C2.36225 6.86492 2.17138 6.7237 1.96655 6.75432C1.60862 6.80784 1.25882 6.90257 0.989528 7.07919C0.701377 7.26817 0.5 7.55804 0.5 7.9502C0.5 8.20951 0.588993 8.43619 0.749898 8.61824C0.903861 8.79243 1.10884 8.9096 1.3223 8.99106C1.51579 9.0649 1.73251 8.9679 1.80636 8.7744C1.8802 8.58091 1.7832 8.36419 1.5897 8.29034C1.44416 8.2348 1.35864 8.17447 1.31185 8.12154C1.27201 8.07646 1.25 8.02639 1.25 7.9502C1.25 7.85486 1.28437 7.78273 1.40085 7.70634C1.53618 7.61758 1.75988 7.54356 2.07745 7.49608Z" stroke="#86919D" stroke-width="0.2" stroke-linecap="round" stroke-linejoin="round"/>
<path d="M8.36703 6.70773L8.50949 6.89716H10.6303C11.0881 6.89716 11.54 7.01541 11.8551 7.38448C12.1516 7.73175 12.2234 8.18508 12.2234 8.60466V8.60654L12.2177 10.4175C12.2177 10.4178 12.2177 10.4182 12.2177 10.4185L12.2177 10.4193L11.6177 10.4175L8.36703 6.70773ZM8.36703 6.70773C8.36684 6.70748 8.36666 6.70723 8.36647 6.70699L8.36703 6.70773Z" fill="white" stroke="white" stroke-width="1.2" stroke-linecap="round" stroke-linejoin="round"/>
<path fill-rule="evenodd" clip-rule="evenodd" d="M11.6177 10.4175C11.6177 11.141 11.1912 11.5674 10.4677 11.5674H7.27646C6.55114 11.5674 6.12387 11.141 6.12387 10.4175V8.0314C6.12387 7.30891 6.38957 6.88245 7.11328 6.88245H7.5177C7.66288 6.88265 7.79958 6.95079 7.88653 7.06706L8.07114 7.31255C8.1585 7.42861 8.29519 7.49696 8.44038 7.49716H10.6303C11.3556 7.49716 11.6234 7.8664 11.6234 8.60466L11.6177 10.4175Z" fill="#86919D" stroke="#86919D" stroke-linecap="round" stroke-linejoin="round"/>
</svg>
