<svg width="13" height="13" viewBox="0 0 13 13" fill="none" xmlns="http://www.w3.org/2000/svg">
<path d="M0.75 6.375C1.125 6 1.5 5.625 1.875 5.625M1.875 5.625C1.875 5.025 1.875 2.875 1.875 1.875H4.875L5.625 5.25M1.875 5.625C2.25 5.625 3.73688 5.55672 4.5 6M5.625 5.25L4.5 6M5.625 5.25L9.05498 5.77769M4.5 6C5.22778 6.42275 6 7.5 6 8.25H9.75L10.5 6L9.05498 5.77769M9.05498 5.77769V4.5C9.03666 4.25 9.15 3.75 9.75 3.75" stroke="#86919D" stroke-width="0.75" stroke-linejoin="round"/>
<circle cx="2.625" cy="9" r="1.875" fill="white" stroke="#86919D" stroke-width="0.75"/>
<circle cx="8.625" cy="10.125" r="0.75" fill="white" stroke="#86919D" stroke-width="0.75"/>
<path d="M7.51832 6.43245H7.5177L11.6177 10.4175L12.0677 10.4189L12.0677 10.4183C12.0677 10.418 12.0677 10.4177 12.0677 10.4175L12.0734 8.60607V8.60466C12.0734 8.19769 12.0028 7.78848 11.7411 7.48187C11.4653 7.15893 11.0643 7.04716 10.6303 7.04716H8.44092C8.43701 7.04713 8.4332 7.04528 8.43069 7.04194L8.2469 6.79756C8.24676 6.79737 8.24661 6.79717 8.24646 6.79698C8.07411 6.56689 7.80397 6.43284 7.51832 6.43245Z" fill="white" stroke="white" stroke-width="0.9" stroke-linecap="round" stroke-linejoin="round"/>
<path fill-rule="evenodd" clip-rule="evenodd" d="M11.6177 10.4175C11.6177 11.141 11.1912 11.5674 10.4677 11.5674H7.27646C6.55114 11.5674 6.12387 11.141 6.12387 10.4175V8.0314C6.12387 7.30891 6.38957 6.88245 7.11328 6.88245H7.5177C7.66288 6.88265 7.79958 6.95079 7.88653 7.06706L8.07114 7.31255C8.1585 7.42861 8.29519 7.49696 8.44038 7.49716H10.6303C11.3556 7.49716 11.6234 7.8664 11.6234 8.60466L11.6177 10.4175Z" fill="#86919D" stroke="#86919D" stroke-width="0.75" stroke-linecap="round" stroke-linejoin="round"/>
</svg>
